<?xml version="1.0" standalone="no"?>
<!DOCTYPE svg PUBLIC "-//W3C//DTD SVG 1.1//EN" "http://www.w3.org/Graphics/SVG/1.1/DTD/svg11.dtd" >
<!--
2013-9-30: Created.
-->
<svg>
<metadata>
Created by iconfont
</metadata>
<defs>

<font id="iconfont" horiz-adv-x="1024" >
  <font-face
    font-family="iconfont"
    font-weight="500"
    font-stretch="normal"
    units-per-em="1024"
    ascent="896"
    descent="-128"
  />
    <missing-glyph />
    
    <glyph glyph-name="icon-datadictionary" unicode="&#59028;" d="M726.0928 102.4H204.8V640a102.4 102.4 0 0 0 102.4 102.4h409.6a102.4 102.4 0 0 0 102.4-102.4v-446.1568h-1.664A91.5456 91.5456 0 0 1 726.0928 102.4zM814.08 0H297.6a92.8 92.8 0 0 0 0 185.6H814.08a92.8256 92.8256 0 0 1 0-185.5488zM557.1584 742.4v-274.4064l76.8 76.8 76.8-76.8V742.4z"  horiz-adv-x="1024" />

    
    <glyph glyph-name="icon-Chart" unicode="&#59029;" d="M235.648 452.7104l128.9728 128.9728a15.8976 15.8976 0 0 0 25.4464 0 15.8976 15.8976 0 0 0 0-25.4464l-128.9728-128.9728a15.8976 15.8976 0 0 0-25.4464 0 15.8976 15.8976 0 0 0-0.0768 25.3696zM439.2704 611.3792l165.3248-77.0816a15.9232 15.9232 0 0 0 8.704-23.9104 15.9232 15.9232 0 0 0-23.9104-8.704l-165.2992 77.0816a15.8976 15.8976 0 0 0-8.704 23.9104 15.8976 15.8976 0 0 0 23.8848 8.704zM633.0624 566.4256l122.0608 135.552a15.9232 15.9232 0 0 0 25.4208 1.3312 15.9232 15.9232 0 0 0 1.3312-25.4208l-122.0608-135.552a15.8976 15.8976 0 0 0-25.4208-1.3312 15.8976 15.8976 0 0 0-1.3568 25.4208zM199.9872 199.6032h40.8064a48 48 0 0 0 48-48v-98.4064H151.9872v98.4064a48 48 0 0 0 48 48z m387.6096 85.1968h43.1104a48 48 0 0 0 48-48v-183.6032h-139.1872V236.8a48 48 0 0 0 48.0768 48z m-194.4064 99.6096h40.8064a48 48 0 0 0 48-48v-283.2128h-136.8064V336.4096a48 48 0 0 0 48 48z m389.9904 122.3936h43.2128a48 48 0 0 0 48-48v-405.6064h-139.1872V458.8032a48 48 0 0 0 47.9744 48zM70.4 24.3968h883.2a16.9728 16.9728 0 0 0 19.2-19.2 16.9728 16.9728 0 0 0-19.2-19.2H70.4a16.9728 16.9728 0 0 0-19.2 19.2 16.9728 16.9728 0 0 0 19.2 19.2zM158.0032 401.792a63.0016 63.0016 0 1 1 63.0016 63.0016 63.0016 63.0016 0 0 1-63.0016-63.0016zM351.2064 604.5952a63.0016 63.0016 0 1 1 63.0016 63.0016 63.0016 63.0016 0 0 1-63.0016-63.0016zM545.5872 513.408a63.0016 63.0016 0 1 1 63.0016 63.0016 63.0016 63.0016 0 0 1-63.0016-63.0016zM742.4 730.5984A63.0016 63.0016 0 1 1 805.4016 793.6 63.0016 63.0016 0 0 1 742.4 730.5984z"  horiz-adv-x="1024" />

    
    <glyph glyph-name="icon-Datacenter" unicode="&#59030;" d="M489.5232 733.5168a66.304 66.304 0 0 0 66.3808 0l248.7552-143.616a66.3552 66.3552 0 0 0 33.28-57.4976v-287.232a66.3552 66.3552 0 0 0-33.28-57.472l-248.7552-143.616a66.3808 66.3808 0 0 0-66.3808 0l-248.6528 143.616a66.4064 66.4064 0 0 0-33.28 57.472v287.232a66.56 66.56 0 0 0 33.28 57.4976z m132.1728-126.9504a50.8416 50.8416 0 0 1-49.8944-51.7376 52.5312 52.5312 0 0 1 15.616-37.6064l-31.1808-51.6096a80.8704 80.8704 0 0 1-85.76-8.064l-34.688 34.7904a44.2112 44.2112 0 0 1 5.5552 21.5296 43.52 43.52 0 0 1-12.1088 30.4128 41.2416 41.2416 0 0 1-29.4912 12.8 42.368 42.368 0 0 1-41.5488-43.0848 43.52 43.52 0 0 1 12.0832-30.4128 41.2416 41.2416 0 0 1 29.4912-12.8 40.0128 40.0128 0 0 1 19.3024 4.9152l34.8416-34.944a88.96 88.96 0 0 1-3.4048-100.352l-47.36-47.5136a54.144 54.144 0 0 1-36.48 14.208 57.5232 57.5232 0 1 1 55.424-57.472 59.008 59.008 0 0 1-4.9664 23.8336l48.8448 49.024a80.896 80.896 0 0 1 112.4608 4.608l40.7552-27.4944a58.88 58.88 0 0 1-4.3008-22.1952 55.4752 55.4752 0 1 1 55.424 57.4976 54.144 54.144 0 0 1-37.888-15.5392l-39.936 26.9056 1.9456 3.8912a88.6016 88.6016 0 0 1 8.3968 33.6384v4.3776a87.5008 87.5008 0 0 1-27.392 64l32.1024 53.12a48.8192 48.8192 0 0 1 14.1056-2.0992 51.7888 51.7888 0 0 1 0 103.5008zM396.8 524.8m-64 0a64 64 0 1 1 128 0 64 64 0 1 1-128 0ZM368.64 250.88m-64 0a64 64 0 1 1 128 0 64 64 0 1 1-128 0ZM670.72 281.6m-64 0a64 64 0 1 1 128 0 64 64 0 1 1-128 0ZM627.2 550.4m-64 0a64 64 0 1 1 128 0 64 64 0 1 1-128 0Z"  horiz-adv-x="1024" />

    
    <glyph glyph-name="icon-datasource" unicode="&#59031;" d="M508.5952 481.9968c153.1392 0 278.1952 38.4 278.1952 84.224v66.3552c0 45.952-125.056 84.224-278.1952 84.224s-278.1952-38.4-278.1952-84.224v-66.3552c0-45.952 125.056-84.224 278.1952-84.224z m0 0M508.6208 341.6064a840.32 840.32 0 0 0-114.688 7.68 746.9056 746.9056 0 0 0-81.92 15.36l-7.9616 4.4288a157.1072 157.1072 0 0 0-62.9504 33.792h-0.4608a26.3168 26.3168 0 0 0-10.0864 20.096 25.3952 25.3952 0 0 0-0.1536 2.8672v99.5328c0-45.7984 124.288-83.9936 276.8128-84.224h2.816c152.4992 0.2304 276.8128 38.4256 276.8128 84.224v-99.5328a25.4208 25.4208 0 0 0-0.1536-2.8672 26.3168 26.3168 0 0 0-10.0864-20.1728h-0.4608a157.0048 157.0048 0 0 0-63.0016-33.8432l-7.9872-4.4288a747.7248 747.7248 0 0 0-81.92-15.36 840.32 840.32 0 0 0-114.6112-7.68zM230.4 640a278.4 76.8 0 1 1 556.8 0 278.4 76.8 0 1 1-556.8 0ZM508.6208 195.6352a840.32 840.32 0 0 0-114.688 7.68 746.9056 746.9056 0 0 0-81.92 15.36l-7.9616 4.4288a157.1072 157.1072 0 0 0-62.9504 33.792h-0.4608a26.3168 26.3168 0 0 0-10.0864 20.096 25.3952 25.3952 0 0 0-0.1536 2.8672v99.5328c0-45.7984 124.288-83.9936 276.8128-84.224h2.816c152.4992 0.2304 276.8128 38.4256 276.8128 84.224v-99.5328a25.4208 25.4208 0 0 0-0.1536-2.8672 26.3168 26.3168 0 0 0-10.0864-20.1728h-0.4608a157.0048 157.0048 0 0 0-63.0016-33.8432l-7.9872-4.4288a747.7248 747.7248 0 0 0-81.92-15.36 840.32 840.32 0 0 0-114.6112-7.68zM508.6208 57.3952a840.32 840.32 0 0 0-114.688 7.68 746.9056 746.9056 0 0 0-81.92 15.36l-7.9616 4.4288a157.1072 157.1072 0 0 0-62.9504 33.792h-0.4608a26.3168 26.3168 0 0 0-10.0864 20.096 25.3952 25.3952 0 0 0-0.1536 2.8672v99.5328c0-45.7984 124.288-83.9936 276.8128-84.224h2.816c152.4992 0.2304 276.8128 38.4256 276.8128 84.224v-99.5328a25.4208 25.4208 0 0 0-0.1536-2.8672 26.3168 26.3168 0 0 0-10.0864-20.1728h-0.4608a157.0048 157.0048 0 0 0-63.0016-33.8432l-7.9872-4.4288a747.7248 747.7248 0 0 0-81.92-15.36 840.32 840.32 0 0 0-114.6112-7.68zM742.4 563.2m-25.6 0a25.6 25.6 0 1 1 51.2 0 25.6 25.6 0 1 1-51.2 0ZM742.4 435.2m-25.6 0a25.6 25.6 0 1 1 51.2 0 25.6 25.6 0 1 1-51.2 0ZM742.4 281.6m-25.6 0a25.6 25.6 0 1 1 51.2 0 25.6 25.6 0 1 1-51.2 0ZM742.4 153.6m-25.6 0a25.6 25.6 0 1 1 51.2 0 25.6 25.6 0 1 1-51.2 0Z"  horiz-adv-x="1024" />

    
    <glyph glyph-name="icon-Dimensionmanagement" unicode="&#59032;" d="M743.2704 631.68l91.8784-53.0176v-130.56l-156.5184-90.368-0.384 126.848-97.28 56.32zM404.9664 69.6064v173.9008l103.7568-59.5456 102.912 59.3152-0.7936-173.0048-103.7056-59.5968-102.0928 58.88z m42.3168 472.704l-108.1088-61.9008v-121.7024L179.2 451.9168v126.6176l102.5792 59.264 165.6576-95.5136z m66.8928-38.7072l98.4576-56.8064-0.6144-127.4112-103.3728-59.6992-103.808 60.5952v122.2656l109.3888 61.056zM673.5872 671.872l-160.4096-91.8272L347.52 675.84 507.1616 768zM338.7136 107.8528L179.2 200.0128v172.9536l159.744-91.8272v-173.44z m496.4352 264.576v-172.4928l-155.8272-89.856-0.4608 172.2368 156.16 90.2144z"  horiz-adv-x="1024" />

    
    <glyph glyph-name="icon-Kanban" unicode="&#59033;" d="M137.6256 716.8h730.0608a53.76 53.76 0 0 0 60.8256-60.8256v-547.5584a53.76 53.76 0 0 0-60.8256-60.8256H137.6256A53.76 53.76 0 0 0 76.8 108.416V655.9744A53.76 53.76 0 0 0 137.6256 716.8zM928.5632 169.2416v-60.8256a60.8256 60.8256 0 0 0-60.8512-60.8256H137.6256A60.8256 60.8256 0 0 0 76.8 108.4672v60.8256h851.7632zM381.0048 534.2976v-304.2048h-91.264V534.3232h91.2384z m152.0896-121.7024v-182.4768H441.856v182.4768z m152.0896-60.8256v-121.6768h-91.2384v121.6768z m-204.8 273.92v-128h182.5024v45.9264l83.0464-62.6688-82.7392-57.4976v43.8016h-217.1136v128h-156.3648V625.664h190.72z"  horiz-adv-x="1024" />

    
    <glyph glyph-name="icon-Dataentry" unicode="&#59034;" d="M770.4576 723.1488l76.3904-76.3904-196.4032-196.4032-76.3904 76.3904zM557.6704 433.9968l16.384 92.7488 76.3648-76.3904zM256 742.4m102.4 0l384 0q102.4 0 102.4-102.4l0-435.2q0-102.4-102.4-102.4l-384 0q-102.4 0-102.4 102.4l0 435.2q0 102.4 102.4 102.4ZM640 0h-384a102.4 102.4 0 0 0-102.4 102.4v435.2a102.4 102.4 0 0 0 102.4 102.4h384c1.9712 0 3.9936 0 6.016-0.1792l-115.712-118.144-24.6784-142.7968 139.9296 25.216 96.8448 98.8416V102.4a102.528 102.528 0 0 0-102.4-102.4zM291.8656 492.5696h147.6864c17.5872 0 24.6016-7.04 24.6016-24.6016s-7.04-24.6016-24.6016-24.6016h-147.6864c-17.5872 0-24.6016 7.04-24.6016 24.6016a22.2208 22.2208 0 0 0 24.6016 24.6016z m0-94.9504h147.6864c17.5872 0 24.6016-7.04 24.6016-24.6016s-7.04-24.6016-24.6016-24.6016h-147.6864c-17.5872 0-24.6016 7.04-24.6016 24.6016a24.0384 24.0384 0 0 0 24.6016 24.6016zM267.264 172.5952l116.0448 91.4176a24.9856 24.9856 0 1 0 31.6416-38.6816l-116.0448-91.4176a23.5008 23.5008 0 0 0-35.1744 3.5072c-10.5216 14.08-10.5216 24.6272 3.5328 35.1744zM411.4432 260.5824l116.0448-91.4176c14.0544-10.5472 14.0544-21.0944 3.5072-35.1744s-21.0944-14.0544-35.1744-3.5072l-116.0448 91.4176c-14.0544 10.5472-14.0544 21.0944-3.5072 35.1744s21.0944 13.9776 35.1744 3.5072zM495.8208 172.6208l137.1392 109.0048a24.9856 24.9856 0 1 0 31.6416-38.6816l-137.1392-109.0048a24.9856 24.9856 0 1 0-31.6416 38.6816zM534.5024 316.7744l119.552-31.6416a23.4496 23.4496 0 1 0-10.5472-45.7216l-119.552 31.6416a23.4496 23.4496 0 0 0 10.5472 45.7216z"  horiz-adv-x="1024" />

    
    <glyph glyph-name="icon-homepage" unicode="&#59035;" d="M929.6384 396.8256c-31.9488 26.624-62.1312 51.4816-94.08 78.1056a36.48 36.48 0 0 0-14.208 31.9488V695.04c0 15.9744-5.3248 21.2992-17.7408 21.2992h-97.664a15.9232 15.9232 0 0 1-17.7408-17.7408v-101.1712a67.584 67.584 0 0 0-10.6496 8.8832c-35.5072 30.1824-72.7808 60.3648-108.288 90.5216a65.3824 65.3824 0 0 1-94.08 0c-65.6896-55.04-133.12-110.08-198.8096-165.0944-53.248-44.3904-108.288-90.5216-161.536-134.912-15.9744-12.416-15.9744-19.5328-3.5584-35.5072 7.0912-8.8832 15.9744-17.7408 23.04-26.624 10.6496-14.208 19.5328-14.208 31.9488-3.5584 88.7552 74.5472 179.2 149.12 268.032 223.6672 28.3904 24.8576 58.5728 47.9232 87.04 72.7808 28.3904-24.8576 58.5728-47.9232 87.04-72.7808 88.7552-74.5472 179.2-149.12 268.032-223.6672 14.208-10.6496 21.2992-10.6496 31.9488 3.5584 7.0912 8.8832 15.9744 17.7408 23.04 28.3904 14.208 14.208 12.416 21.2992-1.7664 33.7152M812.4928 341.8112c-67.456 55.04-133.12 110.08-198.8096 163.3024-30.1824 24.8576-60.3648 49.7152-92.3136 76.3392a24.4992 24.4992 0 0 1-7.0912-5.3248c-95.8464-78.1056-191.7184-157.9776-285.7984-236.0832a20.1472 20.1472 0 0 1-5.3248-14.208v-239.6416a32.9472 32.9472 0 0 1 37.2736-37.2736H455.68v198.8096H588.8v-198.8096h193.4848a34.0736 34.0736 0 0 1 39.0656 39.04v236.0832a19.6608 19.6608 0 0 1-8.8832 17.7408"  horiz-adv-x="1024" />

    
    <glyph glyph-name="icon-Indexmanagement" unicode="&#59036;" d="M583.4752-17.7664H468.992l-22.2976 106.7008a311.8336 311.8336 0 0 0-81.92 33.7408l-91.008-59.648-80.768 80.7424 59.6736 91.0848a312.32 312.32 0 0 0-33.7664 81.92l-106.6496 22.2208v114.4832l106.6496 22.2976a346.9824 346.9824 0 0 0 33.7664 81.92l-59.0848 91.648 80.768 80.7424 91.008-59.648a311.0144 311.0144 0 0 0 81.92 33.7408l22.3232 106.6752h114.5088l22.8864-106.0608a346.88 346.88 0 0 0 81.92-33.7408l90.9824 59.6736 40.4992-40.4992-158.9504-158.9504v0.128l-0.1536 0.1536a190.72 190.72 0 1 1-0.8192-270.8224l158.72-158.72-39.0656-39.0912-91.8784 59.1104a326.5024 326.5024 0 0 0-81.2544-33.1008l-23.5264-106.6496zM526.1824 496.768c55.1936 0 225.8688-99.84 225.8688-99.84s-170.5728-100.0448-225.8688-100.0448a99.9424 99.9424 0 0 0 0 199.8848zM845.5168 180.5824l-49.28 49.28a355.0208 355.0208 0 0 1 58.4192 195.5072 354.2016 354.2016 0 0 1-33.152 150.4512l29.2864 29.2864a383.4368 383.4368 0 0 0 60.9536-208.2816 382.7712 382.7712 0 0 0-66.2016-216.2176z"  horiz-adv-x="1024" />

    
    <glyph glyph-name="icon-form" unicode="&#59037;" d="M609.3056 736.1792l196.096-196.096h-196.096zM716.8 25.6H332.8a102.4 102.4 0 0 0-102.4 102.4V640a102.4 102.4 0 0 0 102.4 102.4h239.488v-245.2224H819.2V128a102.528 102.528 0 0 0-102.4-102.4zM650.752 327.7824H387.968a25.3184 25.3184 0 0 1-24.8576-28.416 27.4432 27.4432 0 0 1 24.8576-28.416h266.24a25.3184 25.3184 0 0 1 24.8576 28.416 30.5408 30.5408 0 0 1-28.3136 28.416z m-262.784 60.3648h127.744a25.3184 25.3184 0 0 1 24.8576 28.416 27.4432 27.4432 0 0 1-24.8576 28.416h-127.744c-14.208-3.5584-28.416-14.208-28.416-28.416a28.0064 28.0064 0 0 1 28.416-28.416z m262.784-177.664H387.968a25.3184 25.3184 0 0 1-24.8576-28.416 27.4432 27.4432 0 0 1 24.8576-28.416h266.24a25.3184 25.3184 0 0 1 24.8576 28.416 30.5408 30.5408 0 0 1-28.3136 28.416z"  horiz-adv-x="1024" />

    
    <glyph glyph-name="icon-dataset" unicode="&#59038;" d="M431.7952 507.5968c153.1392 0 278.1952 38.4 278.1952 84.224v66.3552c0 45.952-125.056 84.224-278.1952 84.224s-278.1952-38.4-278.1952-84.224v-66.3552c0-45.952 125.056-84.224 278.1952-84.224z m0 0M431.7952 466.7392c-153.1392 0-278.1952 38.4-278.1952 84.224v-99.5328c0-45.952 125.056-84.224 278.1952-84.224a830.6432 830.6432 0 0 1 196.5312 23.04l68.9152 38.4h2.56a27.7248 27.7248 0 0 1 10.24 23.04v96.7168c2.5088-45.9264-122.5472-81.664-278.2464-81.664z m0 0M434.3552 320.256c-153.1392 0-280.7552 38.4-280.7552 84.224v-99.5328c0-45.952 125.056-84.224 280.7552-84.224a491.8016 491.8016 0 0 1 61.2608 2.56v91.8528l17.92 10.24c-25.5744-2.5856-53.6576-5.12-79.1808-5.12zM495.616 184.5504a512.5632 512.5632 0 0 0-63.7952-2.56c-153.1392 0-278.1952 38.4-278.1952 84.224v-99.5328c0-45.952 125.056-84.224 278.1952-84.224 28.16 0 53.6064 0 79.1296 2.56l-17.92 7.68v91.8784zM534.0672 307.7888l153.0624 81.3056 153.0624-81.3056-153.0624-71.68zM706.5856 207.5648l155.6992 74.0096v-158.2336l-155.6992-84.224zM667.6992 207.5648l-155.6992 74.0096v-158.2336l155.6992-84.224zM153.6 665.6a278.4 76.8 0 1 1 556.8 0 278.4 76.8 0 1 1-556.8 0Z"  horiz-adv-x="1024" />

    
    <glyph glyph-name="icon-Systembackup" unicode="&#59039;" d="M765.1328 452.6592a262.0928 262.0928 0 0 1-262.016 238.5664 267.5456 267.5456 0 0 1-187.4688-73.5744 8.6272 8.6272 0 0 0-4.6336-1.92h-0.7936v0.768l-5.12 2.56-48.9984 47.7696v-226.9696h232.576l-48.64 47.36-1.6128 0.6656a18.3296 18.3296 0 0 0-0.2304 3.7888 6.0928 6.0928 0 0 0 2.7904 5.888 186.624 186.624 0 0 0 127.5136 46.8224c76.5184 0 137.472-37.9136 155.2384-96.5888l2.7392-9.088 39.7312 0.64zM534.3232 340.5568l48.64-47.36 1.6384-0.6656a18.176 18.176 0 0 0 0.2304-3.7888 6.0416 6.0416 0 0 0-2.7904-5.888 186.5472 186.5472 0 0 0-127.4624-46.8224c-76.5184 0-137.472 37.9136-155.264 96.5888l-2.7392 9.088-39.7312-0.64 0.9984-13.184a262.1184 262.1184 0 0 1 261.9904-238.5664 267.1872 267.1872 0 0 1 187.2384 73.4208 8.7808 8.7808 0 0 0 4.8128 2.0736 6.2464 6.2464 0 0 0 4.5824-1.8176l50.4576-49.2544v226.816z"  horiz-adv-x="1024" />

    
    <glyph glyph-name="icon-Picturewarehouse" unicode="&#59040;" d="M281.6 522.24l251.4176 204.8 235.7504-204.8a76.8 76.8 0 0 0 76.8-76.8v-384a76.8 76.8 0 0 0-76.8-76.8H281.6a76.8 76.8 0 0 0-76.8 76.8v384a76.8 76.8 0 0 0 76.8 76.8zM947.2 307.2l-422.4 370.6368L102.4 307.2v115.8144l422.4 370.5856 422.4-370.5856V307.2z m-316.8256 0H102.4h527.9744zM486.4 307.2m25.6 0l256 0q25.6 0 25.6-25.6l0-230.4q0-25.6-25.6-25.6l-256 0q-25.6 0-25.6 25.6l0 230.4q0 25.6 25.6 25.6ZM788.48 22.1184h-296.704a34.176 34.176 0 0 0-5.376 0.4352v59.3664l35.84 44.5952a30.3872 30.3872 0 0 0 20.0448 12.3392 28.9536 28.9536 0 0 0 19.4304-11.1616l33.024-37.6832a15.8976 15.8976 0 0 1 12.8-6.4h0.5376a13.44 13.44 0 0 1 11.4688 6.4l62.72 96.7168a25.6 25.6 0 0 0 18.1504 7.68 31.0272 31.0272 0 0 0 3.4048-0.2304 22.016 22.016 0 0 0 2.7392 0.1536 20.48 20.48 0 0 0 16.0768-7.9104l70.9632-94.6176v-69.2992a35.4304 35.4304 0 0 0-5.12-0.384z m-205.9008 153.0624a40.4224 40.4224 0 1 0 40.3712 40.448 40.448 40.448 0 0 0-40.3712-40.448zM281.6 358.4h76.8v-76.8h-76.8zM281.6 230.4h76.8v-76.8h-76.8zM281.6 102.4h76.8v-76.8h-76.8z"  horiz-adv-x="1024" />

    
    <glyph glyph-name="icon-Platformlog" unicode="&#59041;" d="M217.6 716.8m102.4 0l384 0q102.4 0 102.4-102.4l0-486.4q0-102.4-102.4-102.4l-384 0q-102.4 0-102.4 102.4l0 486.4q0 102.4 102.4 102.4ZM451.968 404.608h262.784a25.3184 25.3184 0 0 0 24.8576-28.416 27.4432 27.4432 0 0 0-24.8576-28.416h-266.24a25.3184 25.3184 0 0 0-24.8576 28.416 30.5408 30.5408 0 0 0 28.3136 28.416z m262.784 60.3648h-127.8464a25.3184 25.3184 0 0 0-24.8576 28.416 27.4432 27.4432 0 0 0 24.8576 28.416h127.8464c14.208-3.5584 28.416-14.208 28.416-28.416a28.0064 28.0064 0 0 0-28.416-28.416z m-262.784-177.664h262.784a25.3184 25.3184 0 0 0 24.8576-28.416 27.4432 27.4432 0 0 0-24.8576-28.416h-266.24a25.3184 25.3184 0 0 0-24.8576 28.416 30.5408 30.5408 0 0 0 28.3136 28.416zM281.6 422.4m-38.4 0a38.4 38.4 0 1 1 76.8 0 38.4 38.4 0 1 1-76.8 0ZM281.6 294.4m-38.4 0a38.4 38.4 0 1 1 76.8 0 38.4 38.4 0 1 1-76.8 0ZM281.6 166.4m-38.4 0a38.4 38.4 0 1 1 76.8 0 38.4 38.4 0 1 1-76.8 0ZM281.6 576m-38.4 0a38.4 38.4 0 1 1 76.8 0 38.4 38.4 0 1 1-76.8 0Z"  horiz-adv-x="1024" />

    
    <glyph glyph-name="icon-Datapipeline" unicode="&#59042;" d="M431.7952 507.5968c153.1392 0 278.1952 38.4 278.1952 84.224v66.3552c0 45.952-125.056 84.224-278.1952 84.224s-278.1952-38.4-278.1952-84.224v-66.3552c0-45.952 125.056-84.224 278.1952-84.224z m0 0M431.7952 466.7392c-153.1392 0-278.1952 38.4-278.1952 84.224v-99.5328c0-45.952 125.056-84.224 278.1952-84.224a830.6432 830.6432 0 0 1 196.5312 23.04l68.9152 38.4h2.56a27.7248 27.7248 0 0 1 10.24 23.04v96.7168c2.5088-45.9264-122.5472-81.664-278.2464-81.664z m0 0M434.3552 220.7232c-154.8032 0-280.7552 37.8368-280.7552 84.224v99.5328c0-22.272 29.5424-43.3152 82.944-59.3408a716.4416 716.4416 0 0 1 197.7856-24.8832 624.64 624.64 0 0 1 52.0448 2.56v-100.5312c-17.3312-1.5616-34.9696-1.5616-52.0192-1.5616zM431.8208 82.4576a704.2816 704.2816 0 0 0-196.5568 24.9088c-52.6592 16-81.664 37.0688-81.664 59.3408v99.5328c0-22.2208 29.0816-43.264 81.664-59.2384a704.2816 704.2816 0 0 1 196.5312-24.8832c19.1232 0 37.1712 0 54.5792 1.5616v-100.4032c-17.5616-0.8192-35.5328-0.8192-54.5536-0.8192zM153.6 665.6a278.4 76.8 0 1 1 556.8 0 278.4 76.8 0 1 1-556.8 0ZM537.6 179.2h140.8a38.4 38.4 0 0 0 38.4-38.4 38.4 38.4 0 0 0-38.4-38.4h-140.8v76.8zM512 204.8h51.2v-128h-51.2zM716.8 384m0-38.4l0-204.8q0-38.4-38.4-38.4l0 0q-38.4 0-38.4 38.4l0 204.8q0 38.4 38.4 38.4l0 0q38.4 0 38.4-38.4ZM678.4 384h140.8v-76.8h-140.8a38.4 38.4 0 0 0-38.4 38.4 38.4 38.4 0 0 0 38.4 38.4zM793.6 409.6h51.2v-128h-51.2zM729.6 256v-25.6h-102.4v25.6z"  horiz-adv-x="1024" />

    
    <glyph glyph-name="icon-Pageconfiguration" unicode="&#59043;" d="M190.72 742.4H808.96q88.32 0 88.32-88.32v-441.6512q0-88.32-88.32-88.32H190.72q-88.32 0-88.32 88.32V654.08Q102.4 742.4 190.72 742.4zM190.72 742.4H808.96a88.32 88.32 0 0 0 88.32-88.32v-110.5152H102.4V653.9776a88.32 88.32 0 0 0 88.32 88.32zM576.7168 643.0208a33.1264 33.1264 0 1 1 33.1264 33.1264 33.1264 33.1264 0 0 1-33.1264-33.1264zM702.1568 643.0208a33.1264 33.1264 0 1 1 33.1264 33.1264 33.1264 33.1264 0 0 1-33.1264-33.1264zM766.5664 141.184a64 64 0 1 0 63.7184 63.7184 63.4368 63.4368 0 0 0-63.7184-63.7184z m171.3152 19.8144l58.88 12.8v63.232l-58.88 12.2624a173.6192 173.6192 0 0 1-18.8672 45.312l32.5632 50.5088-44.8256 44.8256-50.5088-32.5632a191.5136 191.5136 0 0 1-45.312 18.8672l-12.2624 58.88h-63.232l-12.2624-58.88a191.4624 191.4624 0 0 1-45.312-18.8672l-50.5088 32.5632-44.8256-44.8256 33.0496-50.5088a173.568 173.568 0 0 1-18.8672-45.312l-58.88-12.2624v-63.232l58.88-12.8a191.36 191.36 0 0 1 18.8672-45.312l-33.0496-50.5088 44.8256-44.8256 50.5088 33.024a173.6704 173.6704 0 0 1 45.312-18.8672l12.2624-58.88h63.232l12.2624 58.88a173.696 173.696 0 0 1 45.312 18.8672l50.5088-33.024 44.8256 44.8256-32.5632 50.9696a180.2752 180.2752 0 0 1 18.7904 44.8512zM766.464 311.0656a105.728 105.728 0 1 1 105.728-105.728 105.5488 105.5488 0 0 1-105.728 105.728M766.4896 141.1584a64 64 0 1 0 63.7184 63.7184 63.4368 63.4368 0 0 0-63.7184-63.7184"  horiz-adv-x="1024" />

    
    <glyph glyph-name="icon-Rolepermissions" unicode="&#59044;" d="M817.6128 196.9664a66.8672 66.8672 0 0 1-20.0704 30.3872 142.2336 142.2336 0 0 1-32.2304 18.8416 782.2336 782.2336 0 0 1-77.2096 32.512 317.9264 317.9264 0 0 0-36.1728 12.4672 99.0976 99.0976 0 0 0-28.16 17.92 61.6192 61.6192 0 0 0-20.48 42.8544 86.6304 86.6304 0 0 0 5.7856 36.48 33.7408 33.7408 0 0 0 6.6816 10.24 58.6752 58.6752 0 0 0 9.1136 7.9104 86.0416 86.0416 0 0 1 11.2384 9.728 49.5616 49.5616 0 0 1 9.728 13.6704c2.7392 6.0672 5.12 12.16 7.68 18.2272a190.1312 190.1312 0 0 1 5.7856 21.888 30.3872 30.3872 0 0 1 10.6496 7.9104 50.1504 50.1504 0 0 1 9.728 13.9776 78.4128 78.4128 0 0 1 6.0672 23.7056 57.7536 57.7536 0 0 1 0 19.1488 52.5824 52.5824 0 0 1-4.2496 12.8 16.7168 16.7168 0 0 1-6.3744 8.8064 354.7392 354.7392 0 0 1-3.3536 56.832 273.5616 273.5616 0 0 1-11.5456 51.3792 164.1472 164.1472 0 0 1-24.6016 50.2528 98.176 98.176 0 0 1-19.456 19.456 140.416 140.416 0 0 1-26.8288 17.6128 215.7824 215.7824 0 0 1-32.8192 12.4672 133.7344 133.7344 0 0 1-36.48 4.864 185.1136 185.1136 0 0 1-30.336-3.0464 133.4528 133.4528 0 0 1-30.464-9.7536 141.6448 141.6448 0 0 1-62.9248-51.3792 160.1792 160.1792 0 0 1-20.0704-46.08 364.7488 364.7488 0 0 1-10.24-102.4 53.76 53.76 0 0 1-7.9104-14.8992 78.1312 78.1312 0 0 1-4.864-15.5136 55.3216 55.3216 0 0 1 2.432-21.5808 56.32 56.32 0 0 1 7.9104-18.5344 79.9232 79.9232 0 0 1 8.4992-10.0352 27.9552 27.9552 0 0 1 9.4208-4.864l6.6816-22.1952c2.1248-6.0672 4.5568-12.16 6.9888-17.92a41.6512 41.6512 0 0 1 9.4208-13.9776 256.7168 256.7168 0 0 0 20.0704-19.1488 40.4224 40.4224 0 0 0 10.24-26.1376v-20.0704a60.8 60.8 0 0 0-3.0464-17.92 60.8 60.8 0 0 0-10.6496-17.024 99.84 99.84 0 0 0-21.2736-17.6384 126.4384 126.4384 0 0 0-39.808-18.5344c-15.5136-4.2496-81.7664-28.8768-96.0512-34.3552a119.4496 119.4496 0 0 1-37.376-20.9664 66.2528 66.2528 0 0 1-19.7632-39.808 160.4864 160.4864 0 0 1-2.7392-54.7072 58.368 58.368 0 0 1 10.6496-34.6624 132.8128 132.8128 0 0 1 34.3552-11.8528 1385.4208 1385.4208 0 0 1 276.8896-28.5696 916.1216 916.1216 0 0 1 269.6192 37.0944 46.08 46.08 0 0 1 18.8416 10.24 68.096 68.096 0 0 1 6.6816 22.784 219.392 219.392 0 0 1 2.1248 31.9232c0 10.9312 0 2.1248-1.5104 13.0816a135.68 135.68 0 0 1-4.864 27.3664z m-258.048-68.096a109.7472 109.7472 0 0 0-11.5456-12.8 91.2128 91.2128 0 0 0-13.3632-10.9312 19.7632 19.7632 0 0 0-10.24-4.5568 23.3984 23.3984 0 0 0-9.728 4.2496 119.7568 119.7568 0 0 0-13.6704 10.9312 97.92 97.92 0 0 0-11.8528 13.0816 17.6384 17.6384 0 0 0-4.864 9.728 98.7648 98.7648 0 0 0 2.1248 17.6384 132.1216 132.1216 0 0 0 5.12 24.6272c1.8176 8.4992 3.9424 17.024 6.3744 25.216s3.3536 12.4672 5.12 18.5344a72.3456 72.3456 0 0 0-11.8528 13.6704 19.7632 19.7632 0 0 0-3.6352 11.2384 24.0128 24.0128 0 0 0 3.3536 11.5456 47.7184 47.7184 0 0 0 7.296 9.728 94.5408 94.5408 0 0 0 11.2384 10.24h32.8192l11.2384-10.24a35.2512 35.2512 0 0 0 8.2176-10.24 19.456 19.456 0 0 0 3.6352-11.5456 26.4448 26.4448 0 0 0-4.5568-13.9776 83.2768 83.2768 0 0 0-12.4672-12.8 174.9248 174.9248 0 0 1 4.5568-20.48l5.4784-25.216a138.7776 138.7776 0 0 1 4.5568-23.3984 99.072 99.072 0 0 0 1.8176-14.8992 18.2272 18.2272 0 0 0-4.864-10.0352zM765.6192-24.2944l-42.5728 42.5984 32.5376 32.512-32.512 32.5376 32.512 32.64-32.512 32.512v30.72a95.0528 95.0528 0 0 0-24.5504 152.064 94.976 94.976 0 1 0 109.7472-152.064v-160.896l-42.624-42.5984z m0.512 348.8768a32.0512 32.0512 0 1 1 22.656-9.3696 31.872 31.872 0 0 1-22.656 9.3696z"  horiz-adv-x="1024" />

    
    <glyph glyph-name="icon-Querymodule" unicode="&#59045;" d="M771.584 768H179.8912A51.8912 51.8912 0 0 1 128 716.1088v-589.7472a51.8912 51.8912 0 0 1 51.8912-51.8912H771.584a51.8912 51.8912 0 0 1 51.8912 51.8912V716.1088A51.8912 51.8912 0 0 1 771.584 768zM690.6368 542.3104H239.104a40.448 40.448 0 1 0 0 80.8704h451.5328a40.448 40.448 0 0 0 0-80.8704zM690.6368 229.8368H239.104a40.448 40.448 0 0 0 0 80.8704h451.5328a40.448 40.448 0 0 0 0-80.8704zM547.0208 270.2592a67.9936 67.9936 0 1 0-67.9936 67.9936 67.9936 67.9936 0 0 0 67.9936-67.9936zM479.0528 175.0784a95.1808 95.1808 0 1 0 95.1808 95.1808 95.2832 95.2832 0 0 0-95.1808-95.1808z m0 135.9616a40.7808 40.7808 0 1 1 40.7808-40.7808 40.96 40.96 0 0 1-40.7808 40.8064z m-69.7856 231.2448H233.856a40.448 40.448 0 0 0 0 80.8704h175.4112a40.448 40.448 0 1 0 0-80.8704zM352.0768 582.7328a67.9936 67.9936 0 1 1 67.9936 67.9936 67.9936 67.9936 0 0 1-67.9936-67.9936zM420.0704 487.552a95.1808 95.1808 0 1 0 95.1808 95.1808 95.2832 95.2832 0 0 0-95.1808-95.1808z m0 135.9616a40.7808 40.7808 0 1 1 40.7808-40.7808 40.96 40.96 0 0 1-40.7808 40.7808zM707.1744-5.888a31.4624 31.4624 0 0 0-31.36 31.5392l1.152 419.84a31.4624 31.4624 0 0 0 31.4624 31.36 31.4624 31.4624 0 0 0 31.36-31.5392l-1.152-419.84a31.4624 31.4624 0 0 0-31.4624-31.36zM709.5808 174.4384a163.5584 163.5584 0 1 0 161.7152 165.376 163.5584 163.5584 0 0 0-161.7152-165.376zM707.712 142.9504a194.9952 194.9952 0 0 0-2.1248 389.9904h2.2272a194.9952 194.9952 0 0 0 2.1248-389.9904z m0 327.1168h-1.5104a132.096 132.096 0 0 1 1.4336-264.192h1.5104a132.096 132.096 0 0 1-1.4336 264.192zM709.76 470.1184H709.12v-264.4224h3.584a132.2496 132.2496 0 1 1-2.9696 264.4992z"  horiz-adv-x="1024" />

    
    <glyph glyph-name="icon-taskmanagement" unicode="&#59046;" d="M771.968 689.664h-445.44l-22.1696 53.76a39.5008 39.5008 0 0 1-36.8128 24.5504H161.28a40.0896 40.0896 0 0 1-40.1152-40.1152v-512A40.0896 40.0896 0 0 1 161.28 175.744h610.2272a40.0896 40.0896 0 0 1 40.1152 40.1152V649.5488a39.9872 39.9872 0 0 1-39.6544 40.1152M748.3904 339.9424v268.544a14.8992 14.8992 0 0 1-15.104 15.104H196.224a14.8992 14.8992 0 0 1-15.104-15.104v-268.544a14.8992 14.8992 0 0 1 15.104-15.104h537.0624a14.8992 14.8992 0 0 1 15.104 15.104M237.2608 553.2672a17.92 17.92 0 0 1 17.92-17.92h419.0976a17.92 17.92 0 0 1 17.4592 18.4064 18.4064 18.4064 0 0 1-17.4592 17.4592H255.1808a17.92 17.92 0 0 1-17.92-17.92m-159.5136-101.9392l39.168-310.0672a39.8336 39.8336 0 0 1 39.6544-34.9184h619.648a39.808 39.808 0 0 1 39.6544 34.9184l39.168 310.0672a40.2176 40.2176 0 0 1-34.4576 44.8256c-1.8944 0-3.3024 0.4608-5.12 0.4608H116.9152A40.0896 40.0896 0 0 1 76.8 456.5248a24.3712 24.3712 0 0 0 0.9472-5.12M739.968 171.008a64 64 0 1 0 63.7184 63.7184 63.4368 63.4368 0 0 0-63.7184-63.7184z m171.3152 19.8144l58.88 12.8v63.232l-58.88 12.2624a173.6192 173.6192 0 0 1-18.8672 45.312l32.5632 50.5088-44.8256 44.8256-50.5088-32.5632a191.5136 191.5136 0 0 1-45.312 18.8672l-12.2624 58.88h-63.232l-12.2624-58.88a191.4624 191.4624 0 0 1-45.312-18.8672l-50.5088 32.5632-44.8256-44.8256 33.0496-50.5088a173.568 173.568 0 0 1-18.8672-45.312l-58.88-12.2624v-63.232l58.88-12.8a191.36 191.36 0 0 1 18.8672-45.312l-33.0496-50.5088 44.8256-44.8256 50.5088 33.024a173.6704 173.6704 0 0 1 45.312-18.8672l12.2624-58.88h63.232l12.2624 58.88a173.696 173.696 0 0 1 45.312 18.8672l50.5088-33.024 44.8256 44.8256-32.5632 50.9696a180.2752 180.2752 0 0 1 18.7904 44.8512zM739.8656 340.8896a105.728 105.728 0 1 1 105.728-105.728 105.5488 105.5488 0 0 1-105.728 105.728M739.8912 170.9824a64 64 0 1 0 63.7184 63.7184 63.4368 63.4368 0 0 0-63.7184-63.7184"  horiz-adv-x="1024" />

    
    <glyph glyph-name="icon-Organizationandmanagement" unicode="&#59047;" d="M246.8864 288.6144c54.7328 20.48 84.224 30.4128 94.8736 33.7408a93.0304 93.0304 0 0 1 27.6736 12.4672 60.8 60.8 0 0 1 13.0816 10.6496v1.8176a44.3904 44.3904 0 0 0-3.0464 13.9776 30.4128 30.4128 0 0 0 0 7.68l-12.16 11.2384a82.0736 82.0736 0 0 0-19.7632 27.9808c-3.0464 7.296-6.0928 14.2848-8.5248 21.888v5.4784a105.216 105.216 0 0 0-15.5136 17.3312 100.9408 100.9408 0 0 0-14.592 32.5376 108.2368 108.2368 0 0 0-5.12 44.6976 117.0432 117.0432 0 0 0 6.0928 26.4448 91.2128 91.2128 0 0 0 5.12 12.4672 384.9216 384.9216 0 0 0 3.3536 48.3328 363.0336 363.0336 0 0 0 9.1136 49.2544h-6.1184a121.6 121.6 0 0 1-22.8096-2.56 101.5552 101.5552 0 0 1-23.04-6.9888 125.2864 125.2864 0 0 1-22.8096-14.2848 91.2128 91.2128 0 0 1-20.48-23.04 124.0576 124.0576 0 0 1-14.8992-33.7408 236.8512 236.8512 0 0 1-6.9888-35.584 286.72 286.72 0 0 1-1.8176-39.5264 44.6976 44.6976 0 0 1-8.5248-23.04 46.5152 46.5152 0 0 1 0-15.8208 48.0512 48.0512 0 0 1 6.0928-13.3888 54.7072 54.7072 0 0 1 6.0928-7.296 25.6 25.6 0 0 1 6.9888-3.6608l4.5568-15.8208c1.8176-4.5568 3.3536-8.8064 5.4784-13.3888a30.4128 30.4128 0 0 1 6.6816-10.0352 158.72 158.72 0 0 0 14.592-13.9776 27.6736 27.6736 0 0 0 7.296-19.1488v-14.2848a38.016 38.016 0 0 0-2.1248-13.0816 40.448 40.448 0 0 0-7.68-12.4672 73.6 73.6 0 0 0-15.8208-13.0816 108.8512 108.8512 0 0 0-30.4128-13.3888c-7.9104-2.1248-35.2768-12.16-53.76-18.8416v-128.9984h2.7392a235.2128 235.2128 0 0 0 3.3536 27.3664v3.0464a105.8048 105.8048 0 0 0 34.9696 67.5072 165.4016 165.4016 0 0 0 53.76 28.16h3.9424z m582.5536 20.48a264.4224 264.4224 0 0 0-26.1376 8.8064 76.928 76.928 0 0 0-20.6848 13.0816 46.208 46.208 0 0 0-11.2384 15.2064 49.5616 49.5616 0 0 0-3.6608 16.1024 63.5392 63.5392 0 0 0 3.6608 26.1376 27.0592 27.0592 0 0 0 4.864 7.68 32.2048 32.2048 0 0 0 6.9888 5.7856l7.9104 6.9888a30.4128 30.4128 0 0 1 6.9888 10.24 98.816 98.816 0 0 1 5.4784 13.0816 84.48 84.48 0 0 0 4.2496 16.1024 26.4704 26.4704 0 0 1 9.4208 5.4784 40.448 40.448 0 0 1 6.6816 10.24 54.7328 54.7328 0 0 1 4.5568 17.3312 53.76 53.76 0 0 1 0 13.9776 55.3216 55.3216 0 0 1-3.3536 9.1136 11.8528 11.8528 0 0 1-4.5568 6.3744 269.6704 269.6704 0 0 1-2.56 41.344 264.832 264.832 0 0 1-8.2176 37.4016 130.7136 130.7136 0 0 1-19.7632 36.1728 69.2992 69.2992 0 0 1-13.9776 14.2848 131.0464 131.0464 0 0 1-43.52 22.1952 97.28 97.28 0 0 1-26.4448 3.6608h-12.16a308.3264 308.3264 0 0 0 9.4208-45.9008 389.12 389.12 0 0 0 3.6608-46.208 99.4304 99.4304 0 0 0 10.9568-30.4128 114.6368 114.6368 0 0 0 0-34.048 133.4784 133.4784 0 0 0-10.0352-37.4016 88.7808 88.7808 0 0 0-23.424-30.4128l-2.1248-6.6816v-1.8176q-4.2496-10.9568-9.1136-21.888a91.2128 91.2128 0 0 0-28.16-37.0944v-13.3888a37.7088 37.7088 0 0 0-3.9424-17.024 69.12 69.12 0 0 1 16.4096-9.728 197.9648 197.9648 0 0 1 30.4128-10.24 218.0864 218.0864 0 0 0 30.4128-11.8528l30.4128-13.9776 17.3312-7.68a163.84 163.84 0 0 0 41.9584-24.6272 110.976 110.976 0 0 0 32.2304-49.8688 182.4256 182.4256 0 0 0 6.6816-36.1728 55.936 55.936 0 0 0 1.8176-15.2064h1.8176v132.5824a321.7664 321.7664 0 0 1-30.4128 12.16zM816.3584 196.7872a66.8928 66.8928 0 0 1-20.0704 30.4128 142.2848 142.2848 0 0 1-32.2304 18.8416 782.4384 782.4384 0 0 1-77.2352 32.5376 318.0288 318.0288 0 0 0-36.1728 12.4672 99.1232 99.1232 0 0 0-28.16 17.92 61.6448 61.6448 0 0 0-20.48 42.88 86.656 86.656 0 0 0 5.7856 36.48 33.7408 33.7408 0 0 0 6.6816 10.24 58.6752 58.6752 0 0 0 9.1136 7.9104 86.0416 86.0416 0 0 1 11.2384 9.728 49.5616 49.5616 0 0 1 9.728 13.6704c2.7392 6.0928 5.12 12.16 7.68 18.2528a190.2336 190.2336 0 0 1 5.7856 21.888 30.4128 30.4128 0 0 1 10.6496 7.9104 50.176 50.176 0 0 1 9.728 13.9776 78.4384 78.4384 0 0 1 6.0928 23.7056 57.7536 57.7536 0 0 1 0 19.1488 52.5824 52.5824 0 0 1-4.2496 12.8 16.7168 16.7168 0 0 1-6.3744 8.8064 354.8416 354.8416 0 0 1-3.3536 56.8576 273.664 273.664 0 0 1-11.5456 51.3792 164.1728 164.1728 0 0 1-24.6272 50.176 98.2016 98.2016 0 0 1-19.456 19.456 140.4672 140.4672 0 0 1-26.7776 17.7408 215.8592 215.8592 0 0 1-32.9216 12.4672 133.7856 133.7856 0 0 1-36.48 4.864 185.1648 185.1648 0 0 1-30.4384-3.0464 133.4784 133.4784 0 0 1-30.3872-9.7536 141.696 141.696 0 0 1-62.9248-51.3792 160.2304 160.2304 0 0 1-20.0704-46.208 364.8768 364.8768 0 0 1-10.24-102.4 53.76 53.76 0 0 1-7.9104-14.8992 78.1312 78.1312 0 0 1-4.864-15.5136 55.3216 55.3216 0 0 1 2.56-21.5808 56.32 56.32 0 0 1 7.9104-18.5344 79.9488 79.9488 0 0 1 8.5248-10.0352 27.9808 27.9808 0 0 1 9.4208-4.864l6.6816-22.1952c2.1248-6.0928 4.5568-12.16 6.9888-17.92a41.6512 41.6512 0 0 1 9.4208-13.9776 256.768 256.768 0 0 0 20.0704-19.1488 40.448 40.448 0 0 0 10.24-26.1376v-20.0704a60.8 60.8 0 0 0-3.0464-17.92 60.8256 60.8256 0 0 0-10.6496-17.024 99.84 99.84 0 0 0-21.2736-17.6384 126.4896 126.4896 0 0 0-39.8336-18.5344c-15.5136-4.2496-81.792-28.8768-96.0768-34.3552a119.5008 119.5008 0 0 1-37.4016-20.9664 66.2784 66.2784 0 0 1-19.7632-39.8336 160.5376 160.5376 0 0 1-2.7392-54.7328 58.368 58.368 0 0 1 10.6496-34.6624 132.864 132.864 0 0 1 34.3552-11.8528 1385.8304 1385.8304 0 0 1 276.992-28.5696 916.48 916.48 0 0 1 269.696 37.0944 46.208 46.208 0 0 1 18.8416 10.24 68.096 68.096 0 0 1 6.6816 22.8096 219.4432 219.4432 0 0 1 2.1248 31.9232c0 10.9568 0 2.1248-1.5104 13.0816a135.68 135.68 0 0 1-4.864 27.3664z m-258.1248-68.096a109.7728 109.7728 0 0 0-11.5456-12.8 91.2128 91.2128 0 0 0-13.3888-10.9568 19.7632 19.7632 0 0 0-10.24-4.5568 23.424 23.424 0 0 0-9.728 4.2496 119.8336 119.8336 0 0 0-13.6704 10.9568 97.92 97.92 0 0 0-11.8528 13.0816 17.6384 17.6384 0 0 0-4.864 9.728 98.816 98.816 0 0 0 2.1248 17.6384 132.1984 132.1984 0 0 0 5.12 24.6272c1.8176 8.5248 3.9424 17.024 6.3744 25.2416s3.3536 12.4672 5.12 18.5344a72.3712 72.3712 0 0 0-11.8528 13.6704 19.7632 19.7632 0 0 0-3.6608 11.2384 24.0128 24.0128 0 0 0 3.3536 11.5456 47.7184 47.7184 0 0 0 7.296 9.728 94.72 94.72 0 0 0 11.2384 10.24h32.8448l11.2384-10.24a35.2768 35.2768 0 0 0 8.2176-10.24 19.456 19.456 0 0 0 3.6608-11.5456 26.4448 26.4448 0 0 0-4.5568-13.9776 83.3024 83.3024 0 0 0-12.4672-12.8 175.0016 175.0016 0 0 1 4.5568-20.48l5.4784-25.2416a138.8032 138.8032 0 0 1 4.5568-23.424 99.1232 99.1232 0 0 0 1.8176-14.8992 18.2528 18.2528 0 0 0-4.864-10.0352zM705.3312 113.4336a53.76 53.76 0 1 0 53.5552 53.5552 53.3248 53.3248 0 0 0-53.5552-53.5552z m143.9744 16.6656l49.5872 10.7008v53.1456l-49.5872 10.24a145.92 145.92 0 0 1-15.872 38.0672l27.3664 42.4448-37.6832 37.6832-42.4448-27.3664a160.9216 160.9216 0 0 1-38.0672 15.872l-10.24 49.5872h-53.1456l-10.24-49.5872a160.9216 160.9216 0 0 1-38.0672-15.872l-42.4448 27.3664-37.6832-37.6832 27.776-42.4448a145.92 145.92 0 0 1-15.872-38.0672l-49.5872-10.24V140.8l49.5872-10.7008a160.8704 160.8704 0 0 1 15.872-38.0672l-27.776-42.4448 37.6832-37.6832 42.4448 27.776a145.92 145.92 0 0 1 38.0672-15.872l10.24-49.5872h53.1456l10.24 49.5872a145.92 145.92 0 0 1 38.0672 15.872l42.4448-27.776 37.6832 37.6832-27.3664 42.8288a151.552 151.552 0 0 1 15.8976 37.6576zM705.3568 256.2048a88.8576 88.8576 0 1 1 88.8576-88.8576 88.704 88.704 0 0 1-88.8576 88.8576M705.3312 113.408a53.76 53.76 0 1 0 53.5552 53.5552 53.3248 53.3248 0 0 0-53.5552-53.5552"  horiz-adv-x="1024" />

    
    <glyph glyph-name="icon-usermanagement" unicode="&#59048;" d="M806.9632 196.7872a66.8928 66.8928 0 0 1-20.0704 30.4128 142.2848 142.2848 0 0 1-32.2304 18.8416 782.4128 782.4128 0 0 1-77.2352 32.5376 318.0032 318.0032 0 0 0-36.1728 12.4672 99.1232 99.1232 0 0 0-28.16 17.92 61.6448 61.6448 0 0 0-20.48 42.88 86.656 86.656 0 0 0 5.7856 36.48 33.7664 33.7664 0 0 0 6.6816 10.24 58.7008 58.7008 0 0 0 9.1136 7.9104 86.0416 86.0416 0 0 1 11.2384 9.728 49.5616 49.5616 0 0 1 9.728 13.6704c2.7392 6.0928 5.12 12.16 7.68 18.2528a190.2592 190.2592 0 0 1 5.7856 21.888 30.4128 30.4128 0 0 1 10.6496 7.9104 50.176 50.176 0 0 1 9.728 13.9776 78.4384 78.4384 0 0 1 6.0928 23.7056 57.7536 57.7536 0 0 1 0 19.1488 52.5824 52.5824 0 0 1-4.2496 12.8 16.7168 16.7168 0 0 1-6.3744 8.8064 354.8416 354.8416 0 0 1-3.3536 56.8576 273.6384 273.6384 0 0 1-11.5456 51.3792 164.1728 164.1728 0 0 1-24.6272 50.176 98.2016 98.2016 0 0 1-19.456 19.456 140.4672 140.4672 0 0 1-26.7776 17.7408 215.8592 215.8592 0 0 1-32.9216 12.4672 133.7856 133.7856 0 0 1-36.48 4.864 185.1648 185.1648 0 0 1-30.4384-3.0464 133.4784 133.4784 0 0 1-30.3872-9.7536 141.696 141.696 0 0 1-62.9248-51.3792 160.2304 160.2304 0 0 1-20.0704-46.208 364.8768 364.8768 0 0 1-10.24-102.4 53.76 53.76 0 0 1-7.9104-14.8992 78.1312 78.1312 0 0 1-4.864-15.5136 55.3216 55.3216 0 0 1 2.56-21.5808 56.32 56.32 0 0 1 7.9104-18.5344 79.9488 79.9488 0 0 1 8.5248-10.0352 27.9808 27.9808 0 0 1 9.4208-4.864l6.6816-22.1952c2.1248-6.0928 4.5568-12.16 6.9888-17.92a41.6512 41.6512 0 0 1 9.4208-13.9776 256.8192 256.8192 0 0 0 20.0704-19.1488 40.448 40.448 0 0 0 10.24-26.1376v-20.0704a60.8 60.8 0 0 0-3.0464-17.92 60.8 60.8 0 0 0-10.6496-17.024 99.84 99.84 0 0 0-21.2736-17.6384 126.4896 126.4896 0 0 0-39.8336-18.5344c-15.5136-4.2496-81.792-28.8768-96.0768-34.3552a119.5008 119.5008 0 0 1-37.4016-20.9664 66.2784 66.2784 0 0 1-19.7632-39.8336 160.5376 160.5376 0 0 1-2.7392-54.7328 58.368 58.368 0 0 1 10.6496-34.6624 132.864 132.864 0 0 1 34.3552-11.8528 1385.8304 1385.8304 0 0 1 276.992-28.5696 916.48 916.48 0 0 1 269.696 37.0944 46.208 46.208 0 0 1 18.8416 10.24 68.096 68.096 0 0 1 6.6816 22.8096 219.4432 219.4432 0 0 1 2.1248 31.9232c0 10.9568 0 2.1248-1.5104 13.0816a135.68 135.68 0 0 1-4.864 27.3664z m-258.1248-68.096a109.7984 109.7984 0 0 0-11.5456-12.8 91.2384 91.2384 0 0 0-13.3888-10.9568 19.7632 19.7632 0 0 0-10.24-4.5568 23.424 23.424 0 0 0-9.728 4.2496 119.808 119.808 0 0 0-13.6704 10.9568 97.92 97.92 0 0 0-11.8528 13.0816 17.6384 17.6384 0 0 0-4.864 9.728 98.816 98.816 0 0 0 2.1248 17.6384 132.1728 132.1728 0 0 0 5.12 24.6272c1.8176 8.5248 3.9424 17.024 6.3744 25.2416s3.3536 12.4672 5.12 18.5344a72.3712 72.3712 0 0 0-11.8528 13.6704 19.7632 19.7632 0 0 0-3.6608 11.2384 24.0128 24.0128 0 0 0 3.3536 11.5456 47.7184 47.7184 0 0 0 7.296 9.728 94.5664 94.5664 0 0 0 11.2384 10.24h32.8448l11.2384-10.24a35.2768 35.2768 0 0 0 8.2176-10.24 19.456 19.456 0 0 0 3.6608-11.5456 26.4448 26.4448 0 0 0-4.5568-13.9776 83.3024 83.3024 0 0 0-12.4672-12.8 175.0016 175.0016 0 0 1 4.5568-20.48l5.4784-25.2416a138.8032 138.8032 0 0 1 4.5568-23.424 99.1488 99.1488 0 0 0 1.8176-14.8992 18.2528 18.2528 0 0 0-4.864-10.0352zM675.2768 113.4336a53.76 53.76 0 1 0 53.5552 53.5552 53.3248 53.3248 0 0 0-53.5552-53.5552z m143.9744 16.6656l49.5872 10.7008v53.1456l-49.5872 10.24a145.92 145.92 0 0 1-15.872 38.0672l27.3664 42.4448-37.6832 37.6832-42.4448-27.3664a160.9472 160.9472 0 0 1-38.0672 15.872l-10.24 49.5872h-53.1456l-10.24-49.5872a160.9216 160.9216 0 0 1-38.0672-15.872l-42.4448 27.3664-37.6832-37.6832 27.776-42.4448a145.92 145.92 0 0 1-15.872-38.0672l-49.5872-10.24V140.8l49.5872-10.7008a160.8448 160.8448 0 0 1 15.872-38.0672l-27.776-42.4448 37.6832-37.6832 42.4448 27.776a145.92 145.92 0 0 1 38.0672-15.872l10.24-49.5872h53.1456l10.24 49.5872a145.92 145.92 0 0 1 38.0672 15.872l42.4448-27.776 37.6832 37.6832-27.3664 42.8288a151.4752 151.4752 0 0 1 15.8976 37.6576zM675.3024 256.2048a88.8576 88.8576 0 1 1 88.8576-88.8576 88.704 88.704 0 0 1-88.8576 88.8576M675.2768 113.408a53.76 53.76 0 1 0 53.5552 53.5552 53.3248 53.3248 0 0 0-53.5552-53.5552"  horiz-adv-x="1024" />

    
    <glyph glyph-name="icon-reportform" unicode="&#59049;" d="M128 691.2h768v-614.4H128zM858.3168 732.16H165.2736a57.9072 57.9072 0 0 1-57.7024-57.7792v-577.5616a57.9072 57.9072 0 0 1 57.7536-57.7792h692.992a57.9072 57.9072 0 0 1 57.7536 57.7792V674.3808A57.9072 57.9072 0 0 1 858.3168 732.16z m1.3312-643.072H159.4624V556.5696h700.2368V89.088zM600.9856 184.1408v-61.44h-178.3808v61.44z m219.0336 0v-61.44h-178.5088v61.44h178.6368z m-219.0336 112.896v-61.5936h-178.3808v61.7216h178.3808z m219.0336 0v-61.5936h-178.5088v61.7216h178.6368z m-219.0336 112.896v-61.568h-178.3808v61.44h178.3808z m219.0336 0v-61.568h-178.5088v61.44h178.6368z m-219.0336 112.8192v-61.44h-178.3808v61.44h178.3808z m219.0336 0v-61.44h-178.5088v61.44h178.6368zM382.1056 184.1408v-61.44H203.5968v61.44z m0 338.6112v-61.44H203.5968v61.44h178.56zM382.1056 409.8816v-61.44H203.5968v61.44z m0-112.8192v-61.6448H203.5968v61.6448zM265.0368 676.352v-61.44h-61.44v61.44h61.44zM393.0368 676.352v-61.44h-61.44v61.44h61.44zM521.0368 676.352v-61.44h-61.44v61.44h61.44z"  horiz-adv-x="1024" />

    


  </font>
</defs>
</svg>
